{
	"asset":{
		"generator":"Khronos glTF Blender I/O v3.6.28",
		"version":"2.0"
	},
	"scene":0,
	"scenes":[
		{
			"name":"Scene",
			"nodes":[
				0,
				1,
				2,
				3,
				4,
				5
			]
		}
	],
	"nodes":[
		{
			"mesh":0,
			"name":"armadillo",
			"translation":[
				0,
				0.5851871371269226,
				0
			]
		},
		{
			"mesh":1,
			"name":"teapot",
			"translation":[
				0,
				0.5851871371269226,
				0
			]
		},
		{
			"mesh":2,
			"name":"bunny",
			"translation":[
				0,
				0.5851871371269226,
				0
			]
		},
		{
			"mesh":3,
			"name":"dragon",
			"translation":[
				0,
				0.5851871371269226,
				0
			]
		},
		{
			"mesh":4,
			"name":"hammer",
			"translation":[
				0,
				0.5851871371269226,
				0
			]
		},
		{
			"mesh":5,
			"name":"Cube",
			"translation":[
				0,
				0.5851871371269226,
				0
			]
		}
	],
	"materials":[
		{
			"doubleSided":true,
			"name":"White",
			"pbrMetallicRoughness":{
				"baseColorFactor":[
					0.5377048850059509,
					0.5377048850059509,
					0.5377048850059509,
					1
				],
				"metallicFactor":0,
				"roughnessFactor":0.5
			}
		},
		{
			"doubleSided":true,
			"name":"Black",
			"pbrMetallicRoughness":{
				"baseColorFactor":[
					0.018920570611953735,
					0.018920570611953735,
					0.018920570611953735,
					1
				],
				"metallicFactor":0,
				"roughnessFactor":0.5
			}
		},
		{
			"doubleSided":true,
			"name":"White_003.001",
			"pbrMetallicRoughness":{
				"baseColorFactor":[
					0.5377048850059509,
					0.5377048850059509,
					0.5377048850059509,
					1
				],
				"metallicFactor":0,
				"roughnessFactor":0.5
			}
		},
		{
			"doubleSided":true,
			"name":"Black_003.001",
			"pbrMetallicRoughness":{
				"baseColorFactor":[
					0.018920570611953735,
					0.018920570611953735,
					0.018920570611953735,
					1
				],
				"metallicFactor":0,
				"roughnessFactor":0.5
			}
		},
		{
			"doubleSided":true,
			"name":"Logo_003.001",
			"pbrMetallicRoughness":{
				"baseColorFactor":[
					0.8000001311302185,
					0.003758177859708667,
					0.006105868611484766,
					1
				],
				"metallicFactor":0,
				"roughnessFactor":0.5
			}
		},
		{
			"doubleSided":true,
			"name":"White_002.001",
			"pbrMetallicRoughness":{
				"baseColorFactor":[
					0.5377048850059509,
					0.5377048850059509,
					0.5377048850059509,
					1
				],
				"metallicFactor":0,
				"roughnessFactor":0.5
			}
		},
		{
			"doubleSided":true,
			"name":"Black_002.001",
			"pbrMetallicRoughness":{
				"baseColorFactor":[
					0.018920570611953735,
					0.018920570611953735,
					0.018920570611953735,
					1
				],
				"metallicFactor":0,
				"roughnessFactor":0.5
			}
		},
		{
			"doubleSided":true,
			"name":"White_001.001",
			"pbrMetallicRoughness":{
				"baseColorFactor":[
					0.5377048850059509,
					0.5377048850059509,
					0.5377048850059509,
					1
				],
				"metallicFactor":0,
				"roughnessFactor":0.5
			}
		},
		{
			"doubleSided":true,
			"name":"Logo_001.001",
			"pbrMetallicRoughness":{
				"baseColorFactor":[
					0.8000001311302185,
					0.003758177859708667,
					0.006105868611484766,
					1
				],
				"metallicFactor":0,
				"roughnessFactor":0.5
			}
		},
		{
			"doubleSided":true,
			"name":"Black_001.001",
			"pbrMetallicRoughness":{
				"baseColorFactor":[
					0.018920570611953735,
					0.018920570611953735,
					0.018920570611953735,
					1
				],
				"metallicFactor":0,
				"roughnessFactor":0.5
			}
		},
		{
			"doubleSided":true,
			"name":"Material.001",
			"pbrMetallicRoughness":{
				"baseColorFactor":[
					0.6399999856948853,
					0.6399999856948853,
					0.6399999856948853,
					1
				],
				"metallicFactor":0,
				"roughnessFactor":0.5
			}
		}
	],
	"meshes":[
		{
			"name":"armadillo",
			"primitives":[
				{
					"attributes":{
						"POSITION":0,
						"NORMAL":1
					},
					"indices":2,
					"material":0
				},
				{
					"attributes":{
						"POSITION":3,
						"NORMAL":4
					},
					"indices":5,
					"material":1
				}
			]
		},
		{
			"name":"teapot",
			"primitives":[
				{
					"attributes":{
						"POSITION":6,
						"NORMAL":7
					},
					"indices":8,
					"material":2
				},
				{
					"attributes":{
						"POSITION":9,
						"NORMAL":10
					},
					"indices":11,
					"material":3
				},
				{
					"attributes":{
						"POSITION":12,
						"NORMAL":13
					},
					"indices":14,
					"material":4
				}
			]
		},
		{
			"name":"bunny",
			"primitives":[
				{
					"attributes":{
						"POSITION":15,
						"NORMAL":16
					},
					"indices":17,
					"material":5
				},
				{
					"attributes":{
						"POSITION":18,
						"NORMAL":19
					},
					"indices":20,
					"material":6
				}
			]
		},
		{
			"name":"dragon",
			"primitives":[
				{
					"attributes":{
						"POSITION":21,
						"NORMAL":22
					},
					"indices":23,
					"material":7
				},
				{
					"attributes":{
						"POSITION":24,
						"NORMAL":25
					},
					"indices":26,
					"material":8
				},
				{
					"attributes":{
						"POSITION":27,
						"NORMAL":28
					},
					"indices":29,
					"material":9
				}
			]
		},
		{
			"name":"hammer",
			"primitives":[
				{
					"attributes":{
						"POSITION":30,
						"NORMAL":31
					},
					"indices":32,
					"material":0
				}
			]
		},
		{
			"name":"Cube.001",
			"primitives":[
				{
					"attributes":{
						"POSITION":33,
						"NORMAL":34
					},
					"indices":35,
					"material":10
				}
			]
		}
	],
	"accessors":[
		{
			"bufferView":0,
			"componentType":5126,
			"count":12509,
			"max":[
				2.1795401573181152,
				5.0867919921875,
				2.6038293838500977
			],
			"min":[
				-2.393585681915283,
				-0.4340575933456421,
				-1.7750965356826782
			],
			"type":"VEC3"
		},
		{
			"bufferView":1,
			"componentType":5126,
			"count":12509,
			"type":"VEC3"
		},
		{
			"bufferView":2,
			"componentType":5123,
			"count":74952,
			"type":"SCALAR"
		},
		{
			"bufferView":3,
			"componentType":5126,
			"count":32,
			"max":[
				-0.375964879989624,
				3.9847211837768555,
				1.8692651987075806
			],
			"min":[
				-1.039810299873352,
				3.641511917114258,
				1.6243594884872437
			],
			"type":"VEC3"
		},
		{
			"bufferView":4,
			"componentType":5126,
			"count":32,
			"type":"VEC3"
		},
		{
			"bufferView":5,
			"componentType":5123,
			"count":99,
			"type":"SCALAR"
		},
		{
			"bufferView":6,
			"componentType":5126,
			"count":999,
			"max":[
				1.1901949644088745,
				1.2455565929412842,
				2.9234838485717773
			],
			"min":[
				-1.2701655626296997,
				-0.013884782791137695,
				1.3255808353424072
			],
			"type":"VEC3"
		},
		{
			"bufferView":7,
			"componentType":5126,
			"count":999,
			"type":"VEC3"
		},
		{
			"bufferView":8,
			"componentType":5123,
			"count":5586,
			"type":"SCALAR"
		},
		{
			"bufferView":9,
			"componentType":5126,
			"count":26,
			"max":[
				0.19255182147026062,
				0.841580867767334,
				2.827690839767456
			],
			"min":[
				-0.16004738211631775,
				0.7008715271949768,
				2.738765001296997
			],
			"type":"VEC3"
		},
		{
			"bufferView":10,
			"componentType":5126,
			"count":26,
			"type":"VEC3"
		},
		{
			"bufferView":11,
			"componentType":5123,
			"count":99,
			"type":"SCALAR"
		},
		{
			"bufferView":12,
			"componentType":5126,
			"count":9,
			"max":[
				0.13490095734596252,
				0.7911772131919861,
				2.785647392272949
			],
			"min":[
				-0.03338564932346344,
				0.7102392911911011,
				2.738765001296997
			],
			"type":"VEC3"
		},
		{
			"bufferView":13,
			"componentType":5126,
			"count":9,
			"type":"VEC3"
		},
		{
			"bufferView":14,
			"componentType":5123,
			"count":15,
			"type":"SCALAR"
		},
		{
			"bufferView":15,
			"componentType":5126,
			"count":5945,
			"max":[
				-1.041760802268982,
				3.022841215133667,
				2.4257030487060547
			],
			"min":[
				-3.781705379486084,
				-0.05369424447417259,
				0.4109870195388794
			],
			"type":"VEC3"
		},
		{
			"bufferView":16,
			"componentType":5126,
			"count":5945,
			"type":"VEC3"
		},
		{
			"bufferView":17,
			"componentType":5123,
			"count":35499,
			"type":"SCALAR"
		},
		{
			"bufferView":18,
			"componentType":5126,
			"count":78,
			"max":[
				-2.326735019683838,
				1.6723697185516357,
				2.1875579357147217
			],
			"min":[
				-3.0307135581970215,
				1.2526764869689941,
				1.816936731338501
			],
			"type":"VEC3"
		},
		{
			"bufferView":19,
			"componentType":5126,
			"count":78,
			"type":"VEC3"
		},
		{
			"bufferView":20,
			"componentType":5123,
			"count":309,
			"type":"SCALAR"
		},
		{
			"bufferView":21,
			"componentType":5126,
			"count":7196,
			"max":[
				3.3301641941070557,
				2.8193228244781494,
				2.7575244903564453
			],
			"min":[
				1.123681902885437,
				-0.07791285216808319,
				-1.5688804388046265
			],
			"type":"VEC3"
		},
		{
			"bufferView":22,
			"componentType":5126,
			"count":7196,
			"type":"VEC3"
		},
		{
			"bufferView":23,
			"componentType":5123,
			"count":43122,
			"type":"SCALAR"
		},
		{
			"bufferView":24,
			"componentType":5126,
			"count":12,
			"max":[
				2.2786529064178467,
				2.2607781887054443,
				1.9005695581436157
			],
			"min":[
				1.9343316555023193,
				2.1862375736236572,
				1.572832703590393
			],
			"type":"VEC3"
		},
		{
			"bufferView":25,
			"componentType":5126,
			"count":12,
			"type":"VEC3"
		},
		{
			"bufferView":26,
			"componentType":5123,
			"count":30,
			"type":"SCALAR"
		},
		{
			"bufferView":27,
			"componentType":5126,
			"count":12,
			"max":[
				2.162954807281494,
				2.2420995235443115,
				1.8475664854049683
			],
			"min":[
				1.9343316555023193,
				2.165354013442993,
				1.572832703590393
			],
			"type":"VEC3"
		},
		{
			"bufferView":28,
			"componentType":5126,
			"count":12,
			"type":"VEC3"
		},
		{
			"bufferView":29,
			"componentType":5123,
			"count":30,
			"type":"SCALAR"
		},
		{
			"bufferView":30,
			"componentType":5126,
			"count":897,
			"max":[
				3.341060161590576,
				5.035902500152588,
				1.255607008934021
			],
			"min":[
				0.9694570302963257,
				2.5301406383514404,
				-1.439252257347107
			],
			"type":"VEC3"
		},
		{
			"bufferView":31,
			"componentType":5126,
			"count":897,
			"type":"VEC3"
		},
		{
			"bufferView":32,
			"componentType":5123,
			"count":972,
			"type":"SCALAR"
		},
		{
			"bufferView":33,
			"componentType":5126,
			"count":24,
			"max":[
				7.507465839385986,
				-0.017137855291366577,
				7.349975109100342
			],
			"min":[
				-7.492534160614014,
				-0.5507508516311646,
				-7.650024890899658
			],
			"type":"VEC3"
		},
		{
			"bufferView":34,
			"componentType":5126,
			"count":24,
			"type":"VEC3"
		},
		{
			"bufferView":35,
			"componentType":5123,
			"count":36,
			"type":"SCALAR"
		}
	],
	"bufferViews":[
		{
			"buffer":0,
			"byteLength":150108,
			"byteOffset":0,
			"target":34962
		},
		{
			"buffer":0,
			"byteLength":150108,
			"byteOffset":150108,
			"target":34962
		},
		{
			"buffer":0,
			"byteLength":149904,
			"byteOffset":300216,
			"target":34963
		},
		{
			"buffer":0,
			"byteLength":384,
			"byteOffset":450120,
			"target":34962
		},
		{
			"buffer":0,
			"byteLength":384,
			"byteOffset":450504,
			"target":34962
		},
		{
			"buffer":0,
			"byteLength":198,
			"byteOffset":450888,
			"target":34963
		},
		{
			"buffer":0,
			"byteLength":11988,
			"byteOffset":451088,
			"target":34962
		},
		{
			"buffer":0,
			"byteLength":11988,
			"byteOffset":463076,
			"target":34962
		},
		{
			"buffer":0,
			"byteLength":11172,
			"byteOffset":475064,
			"target":34963
		},
		{
			"buffer":0,
			"byteLength":312,
			"byteOffset":486236,
			"target":34962
		},
		{
			"buffer":0,
			"byteLength":312,
			"byteOffset":486548,
			"target":34962
		},
		{
			"buffer":0,
			"byteLength":198,
			"byteOffset":486860,
			"target":34963
		},
		{
			"buffer":0,
			"byteLength":108,
			"byteOffset":487060,
			"target":34962
		},
		{
			"buffer":0,
			"byteLength":108,
			"byteOffset":487168,
			"target":34962
		},
		{
			"buffer":0,
			"byteLength":30,
			"byteOffset":487276,
			"target":34963
		},
		{
			"buffer":0,
			"byteLength":71340,
			"byteOffset":487308,
			"target":34962
		},
		{
			"buffer":0,
			"byteLength":71340,
			"byteOffset":558648,
			"target":34962
		},
		{
			"buffer":0,
			"byteLength":70998,
			"byteOffset":629988,
			"target":34963
		},
		{
			"buffer":0,
			"byteLength":936,
			"byteOffset":700988,
			"target":34962
		},
		{
			"buffer":0,
			"byteLength":936,
			"byteOffset":701924,
			"target":34962
		},
		{
			"buffer":0,
			"byteLength":618,
			"byteOffset":702860,
			"target":34963
		},
		{
			"buffer":0,
			"byteLength":86352,
			"byteOffset":703480,
			"target":34962
		},
		{
			"buffer":0,
			"byteLength":86352,
			"byteOffset":789832,
			"target":34962
		},
		{
			"buffer":0,
			"byteLength":86244,
			"byteOffset":876184,
			"target":34963
		},
		{
			"buffer":0,
			"byteLength":144,
			"byteOffset":962428,
			"target":34962
		},
		{
			"buffer":0,
			"byteLength":144,
			"byteOffset":962572,
			"target":34962
		},
		{
			"buffer":0,
			"byteLength":60,
			"byteOffset":962716,
			"target":34963
		},
		{
			"buffer":0,
			"byteLength":144,
			"byteOffset":962776,
			"target":34962
		},
		{
			"buffer":0,
			"byteLength":144,
			"byteOffset":962920,
			"target":34962
		},
		{
			"buffer":0,
			"byteLength":60,
			"byteOffset":963064,
			"target":34963
		},
		{
			"buffer":0,
			"byteLength":10764,
			"byteOffset":963124,
			"target":34962
		},
		{
			"buffer":0,
			"byteLength":10764,
			"byteOffset":973888,
			"target":34962
		},
		{
			"buffer":0,
			"byteLength":1944,
			"byteOffset":984652,
			"target":34963
		},
		{
			"buffer":0,
			"byteLength":288,
			"byteOffset":986596,
			"target":34962
		},
		{
			"buffer":0,
			"byteLength":288,
			"byteOffset":986884,
			"target":34962
		},
		{
			"buffer":0,
			"byteLength":72,
			"byteOffset":987172,
			"target":34963
		}
	],
	"buffers":[
		{
			"byteLength":987244,
			"uri":"data:application/octet-stream;base64,"
		}
	]
}
